<svg id="Ebene_1" data-name="Ebene 1" xmlns="http://www.w3.org/2000/svg" viewBox="0 0 1080 1080"><polygon points="375.29 374.06 478.19 374.06 581.8 551.33 530.62 639.98 375.29 374.06"/><polygon points="619.89 374.06 702.72 374.06 702.72 497 620.16 639.98 619.89 374.06"/><rect x="375.29" y="565.05" width="74.93" height="74.93"/><path d="M375.57,711.74h5.57l8.41,23.38h.81l8.46-23.38h5.56v24h-.51V712.25h-4.71l-8.46,23.38h-1.49l-8.41-23.38h-4.72v23.44h-.51Z"/><path d="M435.48,729.8H418.82l-2.19,5.89h-.55L425,711.62h4.25l8.94,24.07h-.55Zm-.19-.51-6.35-17.16h-3.57L419,729.29Z"/><path d="M460,726.17l5.84,9.52h-.59l-5.8-9.45c-.26,0-.53,0-.81,0h-8.07v9.43H450V711.6h8.58c4.7,0,8,3,8,7.33C466.58,722.81,463.9,725.64,460,726.17Zm-1.36-.42c4.42,0,7.46-2.79,7.46-6.82s-3-6.82-7.46-6.82h-8.07v13.64Z"/><path d="M490.41,736.24c-7.31,0-12.7-5.29-12.7-12.43a12.32,12.32,0,0,1,12.66-12.55,19.17,19.17,0,0,1,5,.7v.55a17.54,17.54,0,0,0-5-.74,11.81,11.81,0,0,0-12.15,12c0,6.87,5.18,11.92,12.19,11.92a20.09,20.09,0,0,0,5-.64v.54A21.46,21.46,0,0,1,490.41,736.24Z"/><path d="M522.3,735.24v.51H508V711.57H521.7v.51H508.49v11.1h11.22v.5H508.49v11.56Z"/><path d="M534.49,711.68H535v23.44h13.11v.51H534.49Z"/><path d="M577.33,735.88v-.55a11,11,0,0,0,3.46.49c4.68,0,6.84-2.49,6.84-7.84V712.3h-9.07v-.51h9.58V728c0,5.63-2.4,8.35-7.35,8.35A12.21,12.21,0,0,1,577.33,735.88Z"/><path d="M601.35,725V711.72h.51V725c0,7.27,3.15,10.94,9.35,10.94s9.35-3.67,9.35-10.94V711.68h.51V725c0,7.52-3.36,11.43-9.86,11.43S601.35,732.52,601.35,725Z"/><path d="M644.39,726.17l5.85,9.52h-.6l-5.8-9.45c-.25,0-.53,0-.81,0H635v9.43h-.51V711.6H643c4.7,0,8,3,8,7.33C651,722.81,648.35,725.64,644.39,726.17Zm-1.36-.42c4.42,0,7.46-2.79,7.46-6.82s-3-6.82-7.46-6.82H635v13.64Z"/><path d="M676.47,712.19h-8.22v23.5h-.51v-23.5h-8.22v-.49h17Z"/><path d="M686.62,733.65l15.55-19.93v-1.66H687.26v-.51h15.42v2.34l-15.55,19.93v1.47h16.15v.51H686.62Z"/></svg>