<svg id="Ebene_1" data-name="Ebene 1" xmlns="http://www.w3.org/2000/svg" viewBox="0 0 1352.73 629.13"><polygon points="257.61 195.16 340.47 195.16 423.91 337.9 382.69 409.29 257.61 195.16"/><polygon points="454.58 195.16 521.28 195.16 521.28 294.15 454.8 409.29 454.58 195.16"/><rect x="257.61" y="348.95" width="60.34" height="60.34"/><path d="M599.56,196.49H619l29.37,81.57h2.82l29.51-81.57h19.43v83.58h-1.78v-81.8H681.88l-29.52,81.57h-5.19l-29.36-81.57H601.34v81.8h-1.78Z"/><path d="M795.34,259.53H737.2l-7.64,20.54h-1.93l31.22-84h14.83l31.22,84H803Zm-.67-1.78L772.5,197.83H760l-22.17,59.92Z"/><path d="M867.42,246.84l20.39,33.23h-2.08l-20.24-33c-.89.07-1.86.07-2.82.07H834.49v32.93h-1.78V196h30c16.39,0,27.88,10.53,27.88,25.59C890.55,235.13,881.21,245,867.42,246.84Zm-4.75-1.48c15.42,0,26-9.71,26-23.8s-10.61-23.81-26-23.81H834.49v47.61Z"/><path d="M977.84,199.16a61.47,61.47,0,0,0-17.58-2.59c-24.25,0-42.42,18-42.42,42s18.1,41.61,42.57,41.61A71,71,0,0,0,977.84,278v1.85A74.08,74.08,0,0,1,960.41,282c-25.51,0-44.35-18.47-44.35-43.39s19-43.82,44.2-43.82a67.72,67.72,0,0,1,17.58,2.44Z"/><path d="M1058.37,278.51v1.78h-50V195.9h47.9v1.78h-46.12v38.71h39.15v1.78h-39.15v40.34Z"/><path d="M1087.59,196.27h1.78v81.79h45.75v1.78h-47.53Z"/><path d="M592.89,407.55v-1.93A38.67,38.67,0,0,0,605,407.33c16.31,0,23.88-8.68,23.88-27.36V325.24H597.19v-1.78h33.45V380c0,19.65-8.38,29.14-25.66,29.14A42.94,42.94,0,0,1,592.89,407.55Z"/><path d="M663.41,369.58V323.23h1.78v46.35c0,25.37,11,38.19,32.63,38.19s32.63-12.82,32.63-38.19V323.09h1.78v46.49c0,26.25-11.72,39.9-34.41,39.9S663.41,395.83,663.41,369.58Z"/><path d="M800.3,373.66l20.4,33.22h-2.08l-20.24-33c-.89.08-1.86.08-2.82.08H767.38v32.92H765.6V322.79h30c16.39,0,27.88,10.53,27.88,25.58C823.44,362,814.1,371.81,800.3,373.66Zm-4.74-1.48c15.42,0,26-9.72,26-23.81s-10.61-23.8-26-23.8H767.38v47.61Z"/><path d="M898.93,324.87h-28.7v82h-1.78v-82h-28.7v-1.71h59.18Z"/><path d="M921,399.77l54.28-69.56v-5.79H923.25v-1.78h53.84v8.16l-54.28,69.56v5.12h56.36v1.78H921Z"/></svg>